<svg height="19" viewBox="0 0 199 19" width="199" xmlns="http://www.w3.org/2000/svg"><g fill="#c2c1c1" transform=""><path d="m6.7 9.80201841c1.4-1.1 2.9-2.3 5.7-2.3 2.9 0 4.2 1.2 5.6 2.3 1.6.99999999 3.3 2.49999999 6.7 2.49999999 2.430724-.0034978 4.7769576-.8922227 6.6-2.49999999 1.6-1.1 2.9-2.3 5.8-2.3s4.2 1.2 5.7 2.3c1.6.99999999 3.1 2.49999999 6.6 2.49999999 3.4 0 5-1.4 6.6-2.49999999 1.6-1.1 2.8-2.3 5.7-2.3 2.7 0 4.1 1.2 5.5 2.3 1.6.99999999 3.4 2.49999999 6.7 2.49999999 3.5 0 5.2-1.4 6.7-2.49999999 1.6-1.1 2.8-2.3 5.7-2.3s4.3 1.2 5.7 2.3c1.6.99999999 3.2 2.49999999 6.7 2.49999999s5-1.4 6.7-2.49999999c1.7-1.1 2.8-2.3 5.7-2.3 2.8 0 4.1 1.2 5.7 2.3 1.6 1.09999999 3.2 2.49999999 6.7 2.49999999s5-1.4 6.6-2.49999999c1.5-1.1 2.9-2.3 5.6-2.3 2.9 0 4.3 1.2 5.7 2.3 2 .99999999 3.5 2.49999999 6.8 2.49999999s5.1-1.4 6.7-2.49999999c1.6-1.1 2.9-2.3 5.7-2.3s4.2 1.2 5.8 2.3c1.5.99999999 3.1 2.49999999 6.6 2.49999999s5.1-1.4 6.7-2.49999999c1.4-1.1 3.5-2.3 6.2-2.3s4.1 1.2 5.6 2.3c1.6.99999999 3.5 2.49999999 6.8 2.49999999-.1.1979816.2-1.3020184 0-1.6-2.105232-.0109405-4.233323-.79371269-5.8-2.19999999-1.6-1.1-3.2-2.5-6.6-2.5-4.1 0-5.7 1.4-7.3 2.5-1.52582 1.40790595-3.52388 2.19285809-5.6 2.19999999-2.110616.0180987-4.148845-.76858633-5.7-2.19999999-1.6-1.1-3.3-2.5-6.7-2.5s-5 1.4-6.6 2.5-2.9 2.19999999-5.8 2.19999999c-2.8 0-4-1.09999999-5.7-2.19999999-1.6-1.1-3.2-2.5-6.6-2.5s-5.1 1.4-6.7 2.5c-1.52582 1.40790595-3.52388 2.19285809-5.6 2.19999999-2.105232-.0109405-4.133323-.79371269-5.7-2.19999999-1.6-1.1-3.3-2.5-6.7-2.5-3.3 0-5 1.4-6.6 2.5s-2.9 2.19999999-5.8 2.19999999c-2.1106158.0180987-4.1488451-.76858633-5.7-2.19999999-1.6-1.1-3.2-2.5-6.6-2.5s-5.1 1.4-6.7 2.5c-1.4 1.1-2.9 2.19999999-5.7 2.19999999s-4.2-1.09999999-5.6-2.19999999c-1.6-1.1-3.3-2.5-6.7-2.5-2.430724.00349782-4.7769576.8922227-6.6 2.5-1.6 1.1-2.9 2.19999999-5.8 2.19999999-2.1106158.0180987-4.1488451-.76858633-5.7-2.19999999-1.6-1.1-3.2-2.5-6.6-2.5s-5 1.4-6.6 2.5-3 2.19999999-5.8 2.19999999c-2.7 0-4.2-1.09999999-5.8-2.19999999-1.5-1.1-3-2.5-6.3-2.5-2.4702219-.05037429-4.86656558.8437838-6.7 2.5-1.6 1.1-2.8 2.19999999-5.7 2.19999999l-.2 1.6c3.5 0 5.1-1.4 6.7-2.49999999z"/><path d="m6.7 3.80201841c1.4-1.1 2.9-2.3 5.7-2.3 2.9 0 4.2 1.2 5.6 2.3 1.6 1 3.3 2.5 6.7 2.5 2.430724-.00349782 4.7769576-.89222269 6.6-2.5 1.6-1.1 2.9-2.3 5.8-2.3s4.2 1.2 5.7 2.3c1.6 1 3.1 2.5 6.6 2.5 3.4 0 5-1.4 6.6-2.5s2.8-2.3 5.7-2.3c2.7 0 4.1 1.2 5.5 2.3 1.6 1 3.4 2.5 6.7 2.5 3.5 0 5.2-1.4 6.7-2.5 1.6-1.1 2.8-2.3 5.7-2.3s4.3 1.2 5.7 2.3c1.6 1 3.2 2.5 6.7 2.5s5-1.4 6.7-2.5 2.8-2.3 5.7-2.3c2.8 0 4.1 1.2 5.7 2.3s3.2 2.5 6.7 2.5 5-1.4 6.6-2.5c1.5-1.1 2.9-2.3 5.6-2.3 2.9 0 4.3 1.2 5.7 2.3 2 1 3.5 2.5 6.8 2.5s5.1-1.4 6.7-2.5 2.9-2.3 5.7-2.3 4.2 1.2 5.8 2.3c1.5 1 3.1 2.5 6.6 2.5s5.1-1.4 6.7-2.5c1.4-1.1 3.5-2.3 6.2-2.3s4.1 1.2 5.6 2.3c1.6 1 3.5 2.5 6.8 2.5-.1.19798159.2-1.30201841 0-1.6-2.105232-.0109405-4.233323-.7937127-5.8-2.2-1.6-1.1-3.2-2.5-6.6-2.5-4.1 0-5.7 1.4-7.3 2.5-1.52582 1.40790595-3.52388 2.19285808-5.6 2.2-2.110616.01809867-4.148845-.76858634-5.7-2.2-1.6-1.1-3.3-2.5-6.7-2.5s-5 1.4-6.6 2.5-2.9 2.2-5.8 2.2c-2.8 0-4-1.1-5.7-2.2-1.6-1.1-3.2-2.5-6.6-2.5s-5.1 1.4-6.7 2.5c-1.52582 1.40790595-3.52388 2.19285808-5.6 2.2-2.105232-.0109405-4.133323-.7937127-5.7-2.2-1.6-1.1-3.3-2.5-6.7-2.5-3.3 0-5 1.4-6.6 2.5s-2.9 2.2-5.8 2.2c-2.1106158.01809867-4.1488451-.76858634-5.7-2.2-1.6-1.1-3.2-2.5-6.6-2.5s-5.1 1.4-6.7 2.5c-1.4 1.1-2.9 2.2-5.7 2.2s-4.2-1.1-5.6-2.2c-1.6-1.1-3.3-2.5-6.7-2.5-2.430724.00349782-4.7769576.8922227-6.6 2.5-1.6 1.1-2.9 2.2-5.8 2.2-2.1106158.01809867-4.1488451-.76858634-5.7-2.2-1.6-1.1-3.2-2.5-6.6-2.5s-5 1.4-6.6 2.5-3 2.2-5.8 2.2c-2.7 0-4.2-1.1-5.8-2.2-1.5-1.1-3-2.5-6.3-2.5-2.4702219-.05037429-4.86656558.8437838-6.7 2.5-1.6 1.1-2.8 2.2-5.7 2.2l-.2 1.6c3.5 0 5.1-1.4 6.7-2.5z"/><path d="m6.7 15.8020184c1.4-1.1 2.9-2.3 5.7-2.3 2.9 0 4.2 1.2 5.6 2.3 1.6 1 3.3 2.5 6.7 2.5 2.430724-.0034978 4.7769576-.8922227 6.6-2.5 1.6-1.1 2.9-2.3 5.8-2.3s4.2 1.2 5.7 2.3c1.6 1 3.1 2.5 6.6 2.5 3.4 0 5-1.4 6.6-2.5s2.8-2.3 5.7-2.3c2.7 0 4.1 1.2 5.5 2.3 1.6 1 3.4 2.5 6.7 2.5 3.5 0 5.2-1.4 6.7-2.5 1.6-1.1 2.8-2.3 5.7-2.3s4.3 1.2 5.7 2.3c1.6 1 3.2 2.5 6.7 2.5s5-1.4 6.7-2.5 2.8-2.3 5.7-2.3c2.8 0 4.1 1.2 5.7 2.3s3.2 2.5 6.7 2.5 5-1.4 6.6-2.5c1.5-1.1 2.9-2.3 5.6-2.3 2.9 0 4.3 1.2 5.7 2.3 2 1 3.5 2.5 6.8 2.5s5.1-1.4 6.7-2.5 2.9-2.3 5.7-2.3 4.2 1.2 5.8 2.3c1.5 1 3.1 2.5 6.6 2.5s5.1-1.4 6.7-2.5c1.4-1.1 3.5-2.3 6.2-2.3s4.1 1.2 5.6 2.3c1.6 1 3.5 2.5 6.8 2.5-.1.1979816.2-1.3020184 0-1.6-2.105232-.0109405-4.233323-.7937127-5.8-2.2-1.6-1.1-3.2-2.5-6.6-2.5-4.1 0-5.7 1.4-7.3 2.5-1.52582 1.407906-3.52388 2.1928581-5.6 2.2-2.110616.0180987-4.148845-.7685863-5.7-2.2-1.6-1.1-3.3-2.5-6.7-2.5s-5 1.4-6.6 2.5-2.9 2.2-5.8 2.2c-2.8 0-4-1.1-5.7-2.2-1.6-1.1-3.2-2.5-6.6-2.5s-5.1 1.4-6.7 2.5c-1.52582 1.407906-3.52388 2.1928581-5.6 2.2-2.105232-.0109405-4.133323-.7937127-5.7-2.2-1.6-1.1-3.3-2.5-6.7-2.5-3.3 0-5 1.4-6.6 2.5s-2.9 2.2-5.8 2.2c-2.1106158.0180987-4.1488451-.7685863-5.7-2.2-1.6-1.1-3.2-2.5-6.6-2.5s-5.1 1.4-6.7 2.5c-1.4 1.1-2.9 2.2-5.7 2.2s-4.2-1.1-5.6-2.2c-1.6-1.1-3.3-2.5-6.7-2.5-2.430724.0034978-4.7769576.8922227-6.6 2.5-1.6 1.1-2.9 2.2-5.8 2.2-2.1106158.0180987-4.1488451-.7685863-5.7-2.2-1.6-1.1-3.2-2.5-6.6-2.5s-5 1.4-6.6 2.5-3 2.2-5.8 2.2c-2.7 0-4.2-1.1-5.8-2.2-1.5-1.1-3-2.5-6.3-2.5-2.4702219-.0503743-4.86656558.8437838-6.7 2.5-1.6 1.1-2.8 2.2-5.7 2.2l-.2 1.6c3.5 0 5.1-1.4 6.7-2.5z"/></g></svg>