<svg height="1989" viewBox="0 0 6297 1989" width="6297" xmlns="http://www.w3.org/2000/svg"><g fill="none" transform="translate(-194 -489)"><g transform="translate(202 1736)"><path d="m200 664c0-171.453201 200-369.509965 200-474.286074 0-104.776108-89.54305-189.713926-200-189.713926s-200 84.937818-200 189.713926c0 104.776109 200 302.832873 200 474.286074z" fill="#fa0909" stroke="#fa0909" stroke-width="15"/><circle cx="204" cy="204" fill="#621a1a" r="84"/></g><g transform="translate(4131 497)"><path d="m200 664c0-171.453201 200-369.509965 200-474.286074 0-104.776108-89.54305-189.713926-200-189.713926s-200 84.937818-200 189.713926c0 104.776109 200 302.832873 200 474.286074z" fill="#fa0909" stroke="#fa0909" stroke-width="15"/><circle cx="204" cy="204" fill="#621a1a" r="84"/></g><g transform="translate(6003 1192)"><path d="m200 664c0-171.453201 200-369.509965 200-474.286074 0-104.776108-89.54305-189.713926-200-189.713926s-200 84.937818-200 189.713926c0 104.776109 200 302.832873 200 474.286074z" fill="#fa0909" stroke="#fa0909" stroke-width="15"/><circle cx="204" cy="204" fill="#621a1a" r="84"/></g><path d="m287.432933 1818.0405c19 25 29.666667 37.5 32 37.5 3.5 0 13.5 5.5 13.5 0s-3-33.47222 13-25.5 58 41.5 63.5 41.5c3.666667 0 16.333334 6 38 18 6 .66667 9-3 9-11 0-12-9-21.5-9-27.5s5-16 2.5-21-17.5-30.5-17.5-36.5 11-20 21-13 41.5 29 48 18 13-24.5 6.5-30.5-13-16.5 0-19.5 30 12 34 12 19 3.5 24 0 9.5-6.5 9.5-12-.5-32.5 9-38 31.5-11.5 31.5-11.5 35-55.5 67.5-72 53.5-19.5 61-24.5 20.5-13 14-29.5c.5-19.5-21-26.5-25.5-32s4-13.5 11.5-11 36.5 20 46 20 28-23.5 35.5-23.5 21.5-7 21.5-9.5 24-31.5 24-36.5-12-22.5-12-29 10.5-19.5 21-13 20.5 3.5 23 3.5 21.5-37.5 31.5-37.5c11.5-4.5 32-9 39.5 0s29.499997 28 44.499997 28 29-8 22-25.5-9.5-37.5 0-47 31.5-8.5 26-20.5-48-36-48-58 1.5-27.5 36-42c41.5-34-8.5-46-14-83-1.5-11.5 9-21 14-24s16.5-4.5 20-9.5 25.5-15 34-18 29-6.5 61.5 9 29.5 9 31 9c1 0 8 1.16667 21 3.5 10.66667 6.33333 18 9.5 22 9.5 6 0 16.5 2.5 20.5-3.5s26-6 29-6 16.5-9 16.5-17-16.5-51-16.5-57 15-34.5 27-42 42.5-3.5 42.5-8c7.5-8.999999 17-12.499999 11.5-19.999999s-22-18.5-19-35 27-24 37.5-16 27 19.5 30 26 10 18 15 22.5 20 16.5 28.5 10.5 29-26 15-36-30.5-32.5-34-42 3-33 7.5-38.5 19.5-12 19.5-21 6.5-39 11.5-41.5 62-56.5 68.5-60.5 33.5 0 39.5 0 32 3 38 0 25-7.5 28-7.5 40.5-17.5 51.5-17.5 32 0 37.5 4.5 55 21.5 71.5 13 25.5-22 22.5-32-7-67-7-70 7.5-21.5 23.5-16 28.5 43 28.5 46 25 48.5 25 51.5.5 8.5 23.5 20.5l34 19c14.33334 8 23 12 26 12 4.5 0 22.5 18.5 32.5 18.5s42 12.5 50.5 12.5h37c7 0 34 16 40 16s27 13.5 34 17 27.5 11.5 29.5 11.5 17.5 21 25.5 24 52 16 57 16 18-2.5 25 0 33.5 16 43 22.5 18 14.5 25.5 19 15 12.5 25 16 32 10 43-3 18-51.5 23.5-61 47.78246-46 59.5-55.5c11.71755-9.5 24.5-18.5 27-20.5s4-6.5 7-10.5 43-33.5 59.5-28 40.5 20 48.5 24 47 29 53 41c4 8 10.90585 16.5 20.71755 25.5 9.1883-.666667 15.28245.5 18.28245 3.5 4.5 4.5 48 35.5 42.5 60s-15.78862 36.5-29.18233 48c-13.3937 11.5-26.31767 21-19.81767 31.499999 6.5 10.5 15.5 8 35.5 8s43.5 21 43.5 23.5 27.5 45.5 33 48.5 41.78246 19 51.5 19h62.5c8.5 0 64 43 67 46s14 9 22.5 9 49 4 55.5 0 25-24.5 25-33.5 6.5-15 0-21.5-25-37-25-43 0-3 0-17.5 19.5-44.999999 19.5-50.499999c8-6.5 23-16.5 27.5-19.5s28.5-20.5 38.5-20.5 28.5.5 32 7 22 57.499999 25 60.499999 36 26.5 40.5 26.5 36 31.5 43.5 38 46 27 52 27 53 38 53 47v33c0 9 .5 16.48481 14 16.48481s46.5-10.98481 56-10.98481 67-5.5 81 5 27.5 37 38.5 44 30 26 40.5 26 46-6 52-3 49 28.5 51 28.5 53 34 58 39 19 12 23 15 6 10.5 13.5 10.5h28.5c7.5 0 18.5 6.5 26 6.5h28c11 0 27.5 4.5 33 4.5s18-1.5 23.5-4.5 21-6.5 30-6.5 20.5 6.5 28 6.5 16 6.5 16 4.5 23.5-15.5 29-15.5h21 20c4 0 10.5 2 10.5 4.5s10.5 15.5 10.5 15.5 7.5 1 13 5 27 16.5 33.5 21.5 15.5 18.5 21 24.5 22.5 18 36 21.5 37.5 10.5 45 7 16-9.5 22.5-13 30.5-6 38.5 0 24 12 29.5 17.5 16 12 16 16.5 4 19 4 30 0 24-4 29.5-10 16-10 20.5 0 58.5 5 78.5 9 46.5 9 55.5-20 46.5-20 58.5-6.5 20.5 11 28 31 0 36.5 0 24.5 3 24.5 12.5 7 42.5 12 51 23 16.5 23 24-9 21-6.5 25.5 4.5 10 9 10 40.5 19.5 45.5 19.5 19.5 3 23 0 31.5-5 36.5-5 39.5.5 39.5-3.5 13.5-1 13.5-11 7-59.5 9.5-59.5 23.5-22.5 36-3.5-13 79-13 82.5-8.5 12.5-8.5 16-12 41-4 52 15 23 22 23 39.5 11 45 11 21.5-11.5 21.5-16-14-40.5-14-44 2-42 4.5-42 15.5-24.5 37.5-19.5 38 15 38 19.5 6 16.5 6 21 6 41 0 47-34.5 43.5-37 49-15 23.5-15 28.5-10 21.5-10 25 5 6.5 5 11.5-5 7-5 10 2 11 10 15 27 10.5 35 3.5 4-8 17-7.5 23-11 26-11 13.5 4.5 17.5 4.5 8.5-9 20.5-4.5 23 9 29 4.5 27 6.5 27 6.5 23 17 23 22 41 21.5 51 21.5 24-8.5 31.5-6 27.5 5.5 27.5 0 14-9.5 14-7.5 19 13.5 21 13.5 16.5-6 16.5-6 13-11.5 13-11.5 5.5-9.5 17-9.5h34.5c6.5 0 26.5-1 32-5s17.5-11 17.5-7.5 0 14 4 18 8.5 36 8.5 41-4.5 19-8.5 26.5-4 32.5-4 41-4.5 12.5 4 20 11.5 11 14 11 12-8.5 15.5-18 24-22.5 28-25.5 40-37 48.5-44 42-20.5 42-25.5 10.5-11 10.5-11 19 7 25 11 23.5 7 23.5 9.5 13.5-9.5 17 0c2.33334 6.33333 2.33334 11.66667 0 16 2.33334 7 3.5 10.5 3.5 10.5s7 14.5 7 18v28c0 4-4 20 0 20s22 12 22 17.5 33.5 57.5 49.5 73 27 20.5 32.5 24 8.5 5 8.5 9 1.5 0 7.5 0 17-5 21-2.5 32.5 14.5 32.5 14.5-3-8 0-14.5 10.5-17 15-17 15.5 5 19.5 5 17-1.5 17-10c0-5.66667 0-10.83333 0-15.5l15-6.5c11.33334 2.33333 17 2.33333 17 0 0-3.5 5-14 7-14 1.33334 0 4.83334-3.83333 10.5-11.5-5.66666-18.33333-7.66666-26.33333-6-24 2.5 3.5 16.5-5.5 16.5 4.5s3.5 8 8.5 9 11 2 11 10.5 11 22.5 0 25.5-25.5-.5-19.5 6.5 13.5 25.5 16.5 25.5 20.5-5.5 30.5 0 47.5 5 65 0 28-1 40.5 5.5 56.5 24 59.5 32 12 20.5 12 25.5 12 22.5 12 19.5-2.5 13 0 16 16.5 9.5 22.5 14.5 15 14.5 24 25.5 11 24 19.5 24 20-2.5 23 0 21-4.5 21-11.5-8.5-8 0-12.5 13-5.5 13-11-4.5-14.5-7-14.5-27-5.5-31.5-10-14 6.5-18.5-4.5c-3-7.33333-3-11.66667 0-13 10.66667-2.66667 18.33334-2.66667 23 0 7 4 20 7 27 7s31.5 4 39 0 38-10 40.5-10 33-18 33-23.5 12 4 16 4c2.66667 0 18.66667-1.33333 48-4v131c-24-29-38-43.5-42-43.5-6 0-18 12.5-18 16s-11.5 47-11.5 51-16 12-16 19-13 41-17 47-14.5 22.5-17.5 22.5-39.5 21-60.5 3.5-47-57-50.5-61-46.5-30-53-35.5-11.5-23.5-18.5-29-25-13.5-31.5-9.5-14.5 9.5-14.5 9.5-4-9.5-4-9.5 3.16667-4.33333 9.5-13c4-4.33333 6-8 6-11 0-4.5-6-15-6-19 0-2.66667 2-6.33333 6-11-3.33333 0-8.5 0-15.5 0s-17 0-30 0c-37.66666-2.33333-60.83333-3.5-69.5-3.5-13 0-35.5-9-44-6.5s-68.5 26-72 29-10.5 0-23 0-58-50-65-50-22-14.5-27.5-14.5-25.5-23.5-29.5-28.5c-2.66666-3.33333-7.16666-6-13.5-8-11.66666 1.33333-17.5.33333-17.5-3 0-5-22.5-19.5-26.5-19.5s-38.5-2.5-41 0-10 10.5-15 6.5 0-18.5 0-18.5 15-7 15-10c0-2-1.33333-14-4-36-5 0-8.66666-2.66667-11-8-3.5-8-3.5-34.5-3.5-37.5s-18.5-29.5-18.5-33.5 5-30 5-34.5c0-3 4.5-7.33333 13.5-13l-25.5-18.5-26.5-5.5c3.33334 14.33333 4.16667 21.5 2.5 21.5-2.5 0-18.5 2.5-18.5 2.5s-18 14-26.5 19.5-27.5 22.5-30.5 28-27 57-27 57-14 3.5-18.5 7c-3 2.33333-8.33333 4.66667-16 7 0-5.33333 0-9 0-11 0-3 6-7.5 0-12s-48-21-48-21 2-9-3-18-4.5-16.5-4.5-19.5-5.5-6.5-5.5-12-10-33-10-43.5c0-7 0-12.66667 0-17l-29 25.5c-16.33333-.66667-26.83333 1.5-31.5 6.5-7 7.5-21.5 0-29.5 0s-18.5-1.5-24 1-12.5-13.5-24-10.5c-7.66666 2-13.5 7.16667-17.5 15.5-6.66666 2.66667-11.16666 4-13.5 4-3.5 0 0-3.5-4.5-10s-10.5-4.5-13.5-4.5-10 22-16.5 27.5-19.5 20-45 14-27.5-10-27.5-14c0-2.66667 0-10.33333 0-23l-9.5-15v-10.5c-11.66666 0-18.5 0-20.5 0s-9.83333-7.83333-23.5-23.5c-2.33333 12.33333-3.5 20.16667-3.5 23.5 0 5-9 13-13 16-2.66666 2-18.33333 6.33333-47 13l-5 2.5-13-5c-11.66666-11-20.66666-18.16667-27-21.5-9.5-5-8-19.5-11.5-19.5s-3.5-4.5-3.5-9c0-3-3.16666-7.16667-9.5-12.5-3.33333-5.66667-6.16666-7.5-8.5-5.5-3.5 3-1.5 13.5-3.5 13.5-1.33333 0-5.5 4.5-12.5 13.5-16.33333 0-24.5 0-24.5 0s-11-6-11-6 2-7.5 6.5-7.5 9-11 4.5-13.5c-3-1.66667-4.5-4.66667-4.5-9 1-12.33333 2.5-18.5 4.5-18.5 3 0 14.5-2.5 19.5-5 3.33334-1.66667 9.16667-5.66667 17.5-12 12-13.66667 19.16667-23.5 21.5-29.5 3.5-9 10-15.5 15-22s15-29.5 20-29.5 11-11 14-15 11-20.5 11-26-5-36.5-5-42-7-16-10-16-30 5-30 5-5 13-5 21-3.5 22-3.5 32c0 6.66667 1.16667 16.16667 3.5 28.5-4 8.33333-7.33333 13.83333-10 16.5-2.66666 2.66667-5.83333 4.83333-9.5 6.5-3.33333 3.33333-6.16666 5-8.5 5-3.5 0-13 0-23.5 0s-33-16-40-18.5-21.5-21-21.5-29.5-5.5-22-5.5-24.5 15.5-26 15.5-26 11.5-16 11.5-19.5c0-2.33333 0-7.5 0-15.5-7.66666 0-12.5 0-14.5 0s-6.16666 6.33333-12.5 19c-1 1.33333-5.5 3-13.5 5-12 3-24.5-3-32 0s-24.5-3-30 0-15.5 11-19 11-14.5-2-25-6.5-39.5-16-43.5-20-9.5-10-9.5-14 11-21.5 0-30-21.5-10-26.5-38-4-38-15-38-37.5 8-42.5 2.5-23.5-13.5-21-34 21-40 21-46.5 1-36.5-5-57.5-6-81-6-86.5c0-3.66667 2-9.66667 6-18l10-30.5-5-32.5c-11.66666-11-18.66666-16.5-21-16.5-3.5 0-21.5-4.5-25-4.5s-13-11.5-15-8-7.5 3.5-10 8-10.5 8.5-19 8.5-39.5 4-42.5 0-22.5-16.5-30-16.5-7 2.5-13.5-3.5-32-38.5-36.5-41-26.5-18-31-18-14.5-13.5-17-18-27.5-11-33.5-11-11.5 0-18 0-23 9-23 11-5.5 7-12 4.5-32.5-9-38-9-33 9-42 9-32-4.5-44.5-4.5-31 4.5-42.5 0-27-1.5-35-4.5-23.5-5-26.5-11-37-32.5-49.5-37-36.5-19-39-23-29.5-25.5-35.5-25.5-29.5 6.5-42 6.5-42.5-20.5-50.5-26.5-38.5-50-50-50-65 0-69.5 0-22.5 10.5-26 10.5-14 4.5-25 4.5-29.5-9.5-29.5-20 5-22 5-27.5-17-29-23-35-21-15-41-23-44.5-29.5-53.5-36.5-59.5-37-66-46-21.5-43.999999-25-51.999999c-2.33333-5.333333-5.33333-11.166667-9-17.5-11-2-18.66666-3-23-3-6.5 0-38.5 20-46 28s-9 5-14.5 11.5c-5.5 6.499999-16.5 32.999999-19 39.999999s-5.5 16.5 0 24.5 14.5 26.5 19 33 12 22 6 31.5-25.5 38-31.5 38-44.5 7-58.5 3.5-67-46-73.5-50.5-16.5-9-25.5-9-30.5 0-44.5 0-58.5-16.5-62-19.5-14.5-27.98481-21-33-26.5-27.53038-35-31.01519-21-3.48481-28.5-3.48481-26.0649-5.53038-25.78245-20.515189c.28245-14.98481 45.28245-48.51519 45.28245-61.5s16.92431-23.01519-14.03785-48c-30.96215-24.98481-36.67969-24.98481-37.96215-24.98481-.85497 0-5.6883-3.333333-14.5-10-7.66666-13.676793-15-23.01519-22-28.01519-10.5-7.5-65.5-41.51519-73.5-46s-18.5-8.96962-28-4.48481-36 17.01519-39 22.5-2.28245 11.98481-13.64122 19.98481c-11.35878 8-53.85878 37.53038-61.35878 46.01519s-24.5 23.01519-24.5 27-3.5 34.51519-10 41.5-11 23.48481-34 23.48481-41-14.98481-57-23.48481-46-36.51519-59-36.51519-21 4.98481-31 0-48-13.01519-55-17-17-20.01519-21.5-22.5-39-11.01519-45-14-13.5-10.46962-18.5-13.48481-17.5-6.5-24.5-6.5-26.5.96962-36.5-4.51519-59.5-15.98481-74.5-19.98481-35-22.5-35-22.5-3 1-15.5-5.5-54.5-25.51519-57.5-30.51519-33-66.5-35.5-76-14.5-35.5-24.5-30-14.5 11.03038-10 39.01519 8.5 59.46962-7 66.98481-14.5 12.51519-41.5 12.51519-50-20.5-62-20.5-60.5 17.98481-66.5 17.98481-18.5 2.51519-18.5 2.51519-6.5 6.48481-11 6.48481-70-5.01519-78 0-37.5 31.51519-43.5 35.51519-24 19.46962-26.5 23.98481-7 39.01519-10.5 42.51519-19 21.01519-23 30.5 1.5 27.96962 5 30.48481 31 29.53038 31 37.01519 7.5 22.98481-14.5 32.48481-39.5 5.53038-47.5-7.98481-33.5-46.01519-40.5-46.01519-13.5-5.5-19.5 0-15 14.48481 0 30.5 13.5 28.01519 0 36.015189c-13.5 8-45 9.46962-48.5 12.48481s-20 23.98481-20 41c4 14.5 14.5 40.01519 14.5 49.01519s-7.5 20.46962-14.5 23.98481-27 3.51519-27 3.51519-13 7.48481-22.5 7.48481-34-11-39.5-11-27-5.98481-30.5-5.98481-12-6.01519-19-6.01519-14 2.98481-20 0-27.5-7.48481-33.5-7.48481-21 10-27.5 13.5-30.5 11.98481-30.5 16.98481-6.5 13-6.5 13 2.5 14.5 6.5 21.5 34 35.5 25.5 47c-4 6.5-11 16.51519-21.5 22.51519s-32 12.98481-32 29.48481 32 43 38 50.5 22 20.51519 0 31.51519-23 16-14.5 46.5-17 42.5-37.5 36.5c-20.499997-6-43.499997-31.5-47.999997-31.5s-19 3.98481-26 9.48481-20.5 31.51519-29 31.51519c-24 2.48481-27.5-12-34.5-6s-11.5 11.01519 4.5 34c9 15.48481-29 50.48481-41 54-4.5 5.5-17 4.51519-24 13.5s-11.5 16.01519-23.5 12.5-44-20.5-47.5-20.5-10.5 3.5 18.5 20.5c18 26.98481.5 55.48481-29.5 58.48481-15 0-57 26.97886-68.5 44.73943s-39.5 46.27576-44.5 46.27576-31.5 6.98481-31.5 12.48481-3.5 34.48481-9 38.5c-3 7.5-18.5 13.01519-27 10s-31.5-18.96962-36-14.48481-10-2 0 16-6 37.98481-16.5 37.98481-39-19.98481-46-19.98481-15-1.48481-12.5 7.5 13 28.48481 16 33.98481-3 19.01519 0 23.51519 13.5 22.46962 9.5 30.48481-11 19.01519-22 13.51519-41-16-47.5-23.5-40-38.5-47.5-35-1.5 18.5-11 23-25.5 2.5-31-8.5c-3.666666-7.33333-10.833333-17.16667-21.5-29.5-13.333333-23.33333-20-36-20-38 0-3-12-32.01519-23-39.01519s-53.5-38.98481-55.5-38.98481-25-31.01519-27.5-37.01519-5.5-19.01519-5.5-26.5c0-4.98987-1.166666-9.98481-3.5-14.98481v-9.01519c6 4.33333 9 8.5 9 12.5 0 6 7 15 3.5 23s-3 12.5 0 15 22.5 30.51519 26.5 30.51519 24 17.98481 30 22.48481 29.5 18.98481 36.5 23 13.5 20.98481 13.5 28.5 3 18.03038 6.5 25.51519c2.333334 4.98987 7.166667 11.48987 14.5 19.5z" fill="#aadaff" stroke="#6a6a6a" stroke-width="3" transform="matrix(.9781476 -.20791169 .20791169 .9781476 -273.808739 713.413349)"/></g></svg>