<svg height="158" viewBox="0 0 397 158" width="397" xmlns="http://www.w3.org/2000/svg"><g fill="none" fill-rule="evenodd" transform="translate(-2 -1)"><g font-family="FjallaOne-Regular, Fjalla One"><text fill="#000" font-size="24"><tspan x="161.548828" y="87">19</tspan></text><text fill="#535353" font-size="15"><tspan x="159.673584" y="104">days</tspan></text><text fill="#535353" font-size="15"><tspan x="208.705322" y="104">miles</tspan></text><text fill="#000" font-size="24"><tspan x="207.4375" y="87">130</tspan></text><text fill="#000" font-size="25"><tspan x="141.038086" y="25">Richmond</tspan></text><text fill="#000" font-size="25"><tspan x="290.397461" y="76">Jamestown</tspan></text><text fill="#000" font-size="25"><tspan x=".864746" y="138">Lynchburg</tspan></text></g><g fill-rule="nonzero" stroke="#979797" stroke-linecap="round" stroke-width="3" transform="translate(60 31)"><path d="m0 14c3.68702915 7 7.33800398 10.5 10.9529245 10.5 3.6149205 0 7.2658953-3.5 10.9529244-10.5 3.6870292 7 7.338004 10.5 10.9529245 10.5s7.2658953-3.5 10.9529245-10.5c3.6870291 7 7.338004 10.5 10.9529245 10.5s7.2658953-3.5 10.9529244-10.5"/><path d="m61.5619832.22867853 11.8 7.5-11.5 6.99999997" stroke-linejoin="round" transform="matrix(.2419219 -.97029573 .97029573 .2419219 43.884922 71.127497)"/></g><g fill-rule="nonzero" stroke="#979797" stroke-linecap="round" stroke-width="3" transform="matrix(1 0 0 -1 248 52)"><path d="m.95292448 23.5c3.65097482-7 7.30194964-10.5 10.95292442-10.5 3.6509749 0 7.3019497 3.5 10.9529245 10.5 3.6509748-7 7.3019497-10.5 10.9529245-10.5s7.3019496 3.5 10.9529245 10.5c3.8235851-6.3333333 7.4745599-9.8333333 10.9529244-10.5"/><path d="m55.5619832 2.22867853 11.8 7.5-11.5 6.99999997" stroke-linejoin="round" transform="matrix(.83867057 -.54463904 .54463904 .83867057 4.753168 35.003785)"/></g><path d="m112.581076 133.852647 11.8 7.5-11.5 7" fill-rule="nonzero" stroke="#979797" stroke-linecap="round" stroke-linejoin="round" stroke-width="3" transform="matrix(-.89879405 -.43837115 .43837115 -.89879405 163.115833 319.863551)"/><path d="m0 0c3.68702915 7 7.33800398 10.5 10.9529245 10.5 3.6149205 0 7.2658953-3.5 10.9529244-10.5 3.6870292 7 7.338004 10.5 10.9529245 10.5s7.2658953-3.5 10.9529245-10.5c3.6870291 7 7.338004 10.5 10.9529245 10.5s7.2658953-3.5 10.9529244-10.5" fill-rule="nonzero" stroke="#979797" stroke-linecap="round" stroke-width="3" transform="translate(52 69)"/><path d="m0 0c3.68702915 7 7.33800398 10.5 10.9529245 10.5 3.6149205 0 7.2658953-3.5 10.9529244-10.5 3.6870292 7 7.338004 10.5 10.9529245 10.5s7.2658953-3.5 10.9529245-10.5c3.6870291 7 7.338004 10.5 10.9529245 10.5s7.2658953-3.5 10.9529244-10.5" fill-rule="nonzero" stroke="#979797" stroke-linecap="round" stroke-width="3" transform="translate(44 93)"/><path d="m321 87c-33 72-140 84-198.076034 56.5" style="stroke:#979797;stroke-width:3;stroke-linecap:round;stroke-linejoin:round;stroke-dasharray:4 8;fill-rule:nonzero"/></g></svg>