<svg height="19" viewBox="0 0 397 19" width="397" xmlns="http://www.w3.org/2000/svg"><g fill="#fff" transform=""><path d="m.3 7.2c3.5 0 5.1-1.4 6.7-2.5 1.55115488-1.43141365 3.5893842-2.21809866 5.7-2.2 2.9 0 4.2 1 5.6 2.2 1.6 1.1 3.3 2.5 6.7 2.5 2.430724-.00349782 4.7769576-.8922227 6.6-2.5 1.6-1.1 2.9-2.2 5.8-2.2s4.2 1 5.7 2.2c1.6 1.1 3.1 2.5 6.6 2.5 3.4 0 5-1.4 6.6-2.5s2.8-2.2 5.7-2.2c2.7 0 4.1 1 5.5 2.2 1.6 1.1 3.4 2.5 6.7 2.5 3.5 0 5.2-1.4 6.7-2.5 1.6-1.1 2.8-2.2 5.7-2.2s4.3 1 5.7 2.2c1.6 1.1 3.2 2.5 6.7 2.5s5-1.4 6.7-2.5 2.8-2.2 5.7-2.2c2.8 0 4.1 1 5.7 2.2s3.2 2.5 6.7 2.5 5-1.4 6.6-2.5c1.5-1.1 2.9-2.2 5.6-2.2 2.9 0 4.3 1 5.7 2.2 2 1.1 3.5 2.5 6.8 2.5s5.1-1.4 6.7-2.5 2.9-2.2 5.7-2.2 4.2 1 5.8 2.2c1.5 1.1 3.1 2.5 6.6 2.5s5.1-1.4 6.7-2.5c1.52582-1.40790594 3.52388-2.19285807 5.6-2.2 2.7 0 4.2 1 5.7 2.2 1.6 1.1 3.3 2.5 6.6 2.5h.7c3.5 0 5.1-1.4 6.7-2.5 1.52582-1.40790594 3.52388-2.19285807 5.6-2.2 2.8 0 4.3 1 5.7 2.2 1.6 1.1 3.3 2.5 6.7 2.5s5-1.4 6.6-2.5 2.9-2.2 5.8-2.2c2.8 0 4 1 5.7 2.2 1.6 1.1 3.1 2.5 6.6 2.5s5.1-1.4 6.7-2.5c1.52582-1.40790594 3.52388-2.19285807 5.6-2.2 2.116235-.04966372 4.16589.74143142 5.7 2.2 1.6 1.1 3.3 2.5 6.7 2.5s5-1.4 6.6-2.5 2.9-2.2 5.8-2.2c2.116235-.04966372 4.16589.74143142 5.7 2.2 1.6 1.1 3.2 2.5 6.6 2.5s5.1-1.4 6.7-2.5c1.4-1.1 2.9-2.2 5.7-2.2s4.2 1 5.6 2.2c1.6 1.1 3.3 2.5 6.7 2.5s5.2-1.4 6.6-2.5c1.6-1.1 2.9-2.2 5.8-2.2 2.116235-.04966372 4.16589.74143142 5.7 2.2 1.6 1.1 3.2 2.5 6.7 2.5 3.3 0 4.9-1.4 6.5-2.5s3-2.2 5.8-2.2c2.7 0 4.2 1 5.8 2.2 1.5 1.1 3 2.5 6.3 2.5 3.5 0 5.3-1.4 6.7-2.5 1.6-1.1 2.8-2.2 5.7-2.2 2.184717-.10402683 4.316761.69097278 5.9 2.2 1.6 1.1 3.2 2.5 6.7 2.5v-1.6c-2.9 0-4.3-1-5.8-2.2-1.6-1-3.1-2.5-6.6-2.5s-5.1 1.4-6.7 2.5c-1.4 1.1-2.9 2.2-5.7 2.2s-4.2-1-5.6-2.2c-1.6-1-3.3-2.5-6.7-2.5-2.430724.00349782-4.776958.8922227-6.6 2.5-1.6 1.1-2.9 2.2-5.8 2.2s-4.2-1-5.7-2.2c-1.6-1-3.1-2.5-6.6-2.5-3.4 0-5 1.4-6.6 2.5-1.5 1.1-2.8 2.2-5.7 2.2-2.7 0-4.1-1-5.5-2.2-1.6-1-3.4-2.5-6.7-2.5-3.5 0-5.2 1.4-6.7 2.5-1.6 1.1-2.8 2.2-5.7 2.2s-4.3-1-5.7-2.2c-1.6-1-3.2-2.5-6.7-2.5s-5 1.4-6.7 2.5-2.8 2.2-5.7 2.2-4.1-1-5.7-2.2c-1.6-1-3.2-2.5-6.7-2.5s-5 1.4-6.6 2.5c-1.5 1.1-2.9 2.2-5.6 2.2-2.9 0-4.3-1-5.7-2.2-2-1-3.5-2.5-6.8-2.5s-5.1 1.4-6.7 2.5-2.9 2.2-5.7 2.2-4.2-1-5.8-2.2-3.1-2.5-6.6-2.5-5.1 1.4-6.7 2.5c-1.52582 1.40790594-3.52388 2.19285807-5.6 2.2-2.105232-.0109405-4.133323-.79371271-5.7-2.2-1.6-1-3.3-2.5-6.7-2.5h-.6c-3.5 0-5.1 1.4-6.7 2.5-1.52582 1.40790594-3.52388 2.19285807-5.6 2.2-2.110616.01809866-4.148845-.76858635-5.7-2.2-1.6-1-3.3-2.5-6.7-2.5s-5 1.4-6.6 2.5-2.9 2.2-5.8 2.2c-2.8 0-4-1-5.7-2.2-1.6-1-3.2-2.5-6.6-2.5s-5.1 1.4-6.7 2.5c-1.52582 1.40790594-3.52388 2.19285807-5.6 2.2-2.105232-.0109405-4.133323-.79371271-5.7-2.2-1.6-1-3.3-2.5-6.7-2.5-3.3 0-5 1.4-6.6 2.5s-2.9 2.2-5.8 2.2c-2.1106158.01809866-4.1488451-.76858635-5.7-2.2-1.6-1-3.2-2.5-6.6-2.5s-5.1 1.4-6.7 2.5c-1.4 1.1-2.9 2.2-5.7 2.2s-4.2-1-5.6-2.2c-1.6-1-3.3-2.5-6.7-2.5-2.430724.00349782-4.7769576.8922227-6.6 2.5-1.6 1.1-2.9 2.2-5.8 2.2-2.1106158.01809866-4.1488451-.76858635-5.7-2.2-1.6-1-3.2-2.5-6.6-2.5s-5 1.4-6.6 2.5-3 2.2-5.8 2.2c-2.7 0-4.2-1-5.8-2.2-1.5-1-3-2.5-6.3-2.5-2.4702219-.05037429-4.86656558.84378379-6.7 2.5-1.6 1.1-2.8 2.2-5.7 2.2z"/><path d="m.3 13c3.5 0 5.1-1.4 6.7-2.5 1.4-1 2.9-2.2 5.7-2.2 2.9 0 4.2 1.1 5.6 2.2 1.6 1.1 3.3 2.6 6.7 2.6 2.4438024-.0310279 4.7916374-.9559326 6.6-2.6 1.6-1 2.9-2.2 5.8-2.2s4.2 1.1 5.7 2.2c1.6 1.1 3.1 2.6 6.6 2.6 3.4 0 5-1.5 6.6-2.6s2.8-2.2 5.7-2.2c2.7 0 4.1 1.1 5.5 2.2 1.6 1.1 3.4 2.6 6.7 2.6 3.5 0 5.2-1.5 6.7-2.6 1.6-1 2.8-2.2 5.7-2.2s4.3 1.1 5.7 2.2c1.6 1.1 3.2 2.6 6.7 2.6s5-1.5 6.7-2.6 2.8-2.2 5.7-2.2c2.8 0 4.1 1.1 5.7 2.2s3.2 2.6 6.7 2.6 5-1.5 6.6-2.6c1.5-1 2.9-2.2 5.6-2.2 2.9 0 4.3 1.1 5.7 2.2 2 1.1 3.5 2.6 6.8 2.6s5.1-1.5 6.7-2.6c1.6-1 2.9-2.2 5.7-2.2s4.2 1.1 5.8 2.2c1.5 1.1 3.1 2.6 6.6 2.6s5.1-1.5 6.7-2.6c1.4-1 2.9-2.2 5.6-2.2s4.2 1.1 5.7 2.2c1.6 1.1 3.3 2.6 6.6 2.6h.7c3.5 0 5.1-1.5 6.7-2.6 1.4-1 2.9-2.2 5.6-2.2 2.8 0 4.3 1.1 5.7 2.2 1.6 1.1 3.3 2.6 6.7 2.6s5-1.5 6.6-2.6c1.6-1 2.9-2.2 5.8-2.2 2.8 0 4 1.1 5.7 2.2 1.6 1.1 3.1 2.6 6.6 2.6s5.1-1.5 6.7-2.6c1.4-1 2.9-2.2 5.6-2.2s4.3 1.1 5.7 2.2c1.6 1.1 3.3 2.6 6.7 2.6s5-1.5 6.6-2.6c1.6-1 2.9-2.2 5.8-2.2 2.8 0 4.2 1.1 5.7 2.2 1.6 1.1 3.2 2.6 6.6 2.6s5.1-1.5 6.7-2.6c1.4-1 2.9-2.2 5.7-2.2s4.2 1.1 5.6 2.2c1.6 1.1 3.3 2.6 6.7 2.6s5.2-1.5 6.6-2.6c1.6-1 2.9-2.2 5.8-2.2 2.8 0 4.2 1.1 5.7 2.2 1.6 1.1 3.2 2.6 6.7 2.6 3.3 0 4.9-1.5 6.5-2.6 1.6-1 3-2.2 5.8-2.2 2.7 0 4.2 1.1 5.8 2.2 1.5 1.1 3 2.6 6.3 2.6 3.5 0 5.3-1.5 6.7-2.6 1.6-1 2.8-2.2 5.7-2.2s4.6 1.1 5.9 2.2c1.6 1.1 3.2 2.6 6.7 2.6v-1.6c-2.9 0-4.3-1.1-5.8-2.2-1.6-1.2-3.1-2.6-6.6-2.6s-5.1 1.4-6.7 2.6c-1.4 1-2.9 2.2-5.7 2.2s-4.2-1.1-5.6-2.2c-1.6-1.2-3.3-2.6-6.7-2.6-2.443802.03102785-4.791637.95593257-6.6 2.6-1.6 1-2.9 2.2-5.8 2.2s-4.2-1.1-5.7-2.2c-1.6-1.2-3.1-2.6-6.6-2.6-3.4 0-5 1.4-6.6 2.6-1.5 1-2.8 2.2-5.7 2.2-2.7 0-4.1-1.1-5.5-2.2-1.6-1.2-3.4-2.6-6.7-2.6-3.5 0-5.2 1.4-6.7 2.6-1.6 1-2.8 2.2-5.7 2.2s-4.3-1.1-5.7-2.2c-1.6-1.2-3.2-2.6-6.7-2.6s-5 1.4-6.7 2.6-2.8 2.2-5.7 2.2-4.1-1.1-5.7-2.2c-1.6-1.2-3.2-2.6-6.7-2.6s-5 1.4-6.6 2.6c-1.5 1-2.9 2.2-5.6 2.2-2.114335.0388406-4.160025-.750724-5.7-2.2-2-1.2-3.5-2.6-6.8-2.6s-5.1 1.4-6.7 2.6c-1.6 1-2.9 2.2-5.7 2.2s-4.2-1.1-5.8-2.2-3.1-2.6-6.6-2.6-5.1 1.4-6.7 2.6c-1.4 1-2.9 2.2-5.6 2.2-2.105232-.0109405-4.133323-.7937127-5.7-2.2-1.6-1.2-3.3-2.6-6.7-2.6h-.6c-3.5 0-5.1 1.4-6.7 2.6-1.4 1-2.9 2.2-5.6 2.2-2.110616.0180987-4.148845-.7685863-5.7-2.2-1.6-1.2-3.3-2.6-6.7-2.6s-5 1.4-6.6 2.6c-1.6 1-2.9 2.2-5.8 2.2-2.8 0-4-1.1-5.7-2.2-1.6-1.2-3.2-2.6-6.6-2.6s-5.1 1.4-6.7 2.6c-1.4 1-2.9 2.2-5.6 2.2-2.105232-.0109405-4.133323-.7937127-5.7-2.2-1.6-1.2-3.3-2.6-6.7-2.6-3.3 0-5 1.4-6.6 2.6-1.6 1-2.9 2.2-5.8 2.2-2.1106158.0180987-4.1488451-.7685863-5.7-2.2-1.6-1.2-3.2-2.6-6.6-2.6s-5.1 1.4-6.7 2.6c-1.4 1-2.9 2.2-5.7 2.2s-4.2-1.1-5.6-2.2c-1.6-1.2-3.3-2.6-6.7-2.6-2.4438024.03102785-4.7916374.95593257-6.6 2.6-1.6 1-2.9 2.2-5.8 2.2-2.1106158.0180987-4.1488451-.7685863-5.7-2.2-1.6-1.2-3.2-2.6-6.6-2.6s-5 1.4-6.6 2.6c-1.6 1-3 2.2-5.8 2.2-2.7 0-4.2-1.1-5.8-2.2-1.5-1.2-3-2.6-6.3-2.6-2.4915031-.06614011-4.90529151.87055388-6.7 2.6-1.6 1-2.8 2.2-5.7 2.2l-.2 1.6z"/><path d="m.3 19c3.5 0 5.1-1.5 6.7-2.6 1.4-1.1 2.9-2.3 5.7-2.3 2.9 0 4.2 1.2 5.6 2.3 1.6 1 3.3 2.5 6.7 2.5 2.430724-.0034978 4.7769576-.8922227 6.6-2.5 1.6-1.1 2.9-2.3 5.8-2.3s4.2 1.2 5.7 2.3c1.6 1 3.1 2.5 6.6 2.5 3.4 0 5-1.4 6.6-2.5s2.8-2.3 5.7-2.3c2.7 0 4.1 1.2 5.5 2.3 1.6 1 3.4 2.5 6.7 2.5 3.5 0 5.2-1.4 6.7-2.5 1.6-1.1 2.8-2.3 5.7-2.3s4.3 1.2 5.7 2.3c1.6 1 3.2 2.5 6.7 2.5s5-1.4 6.7-2.5 2.8-2.3 5.7-2.3c2.8 0 4.1 1.2 5.7 2.3s3.2 2.5 6.7 2.5 5-1.4 6.6-2.5c1.5-1.1 2.9-2.3 5.6-2.3 2.9 0 4.3 1.2 5.7 2.3 2 1 3.5 2.5 6.8 2.5s5.1-1.4 6.7-2.5 2.9-2.3 5.7-2.3 4.2 1.2 5.8 2.3c1.5 1 3.1 2.5 6.6 2.5s5.1-1.4 6.7-2.5c1.4-1.1 2.9-2.3 5.6-2.3s4.2 1.2 5.7 2.3c1.6 1 3.3 2.5 6.6 2.5h.7c3.5 0 5.1-1.4 6.7-2.5 1.4-1.1 2.9-2.3 5.6-2.3 2.8 0 4.3 1.2 5.7 2.3 1.6 1 3.3 2.5 6.7 2.5s5-1.4 6.6-2.5 2.9-2.3 5.8-2.3c2.8 0 4 1.2 5.7 2.3 1.6 1 3.1 2.5 6.6 2.5s5.1-1.4 6.7-2.5c1.4-1.1 2.9-2.3 5.6-2.3s4.3 1.2 5.7 2.3c1.6 1 3.3 2.5 6.7 2.5s5-1.4 6.6-2.5 2.9-2.3 5.8-2.3c2.8 0 4.2 1.2 5.7 2.3 1.6 1 3.2 2.5 6.6 2.5s5.1-1.4 6.7-2.5c1.4-1.1 2.9-2.3 5.7-2.3s4.2 1.2 5.6 2.3c1.6 1 3.3 2.5 6.7 2.5s5.2-1.4 6.6-2.5c1.6-1.1 2.9-2.3 5.8-2.3 2.8 0 4.2 1.2 5.7 2.3 1.6 1 3.2 2.5 6.7 2.5 3.3 0 4.9-1.4 6.5-2.5s3-2.3 5.8-2.3c2.7 0 4.2 1.2 5.8 2.3 1.5 1 3 2.5 6.3 2.5 3.5 0 5.3-1.4 6.7-2.5 1.6-1.1 2.8-2.3 5.7-2.3s4.6 1.2 5.9 2.3c1.6 1 3.2 2.5 6.7 2.5v-1.6c-2.9 0-4.3-1.1-5.8-2.2-1.6-1.1-3.1-2.5-6.6-2.5s-5.1 1.4-6.7 2.5c-1.4 1.1-2.9 2.2-5.7 2.2s-4.2-1.1-5.6-2.2c-1.6-1.1-3.3-2.5-6.7-2.5-2.430724.0034978-4.776958.8922227-6.6 2.5-1.6 1.1-2.9 2.2-5.8 2.2s-4.2-1.1-5.7-2.2c-1.6-1.1-3.1-2.5-6.6-2.5-3.4 0-5 1.4-6.6 2.5-1.5 1.1-2.8 2.2-5.7 2.2-2.7 0-4.1-1.1-5.5-2.2-1.6-1.1-3.4-2.5-6.7-2.5-3.5 0-5.2 1.4-6.7 2.5-1.6 1.1-2.8 2.2-5.7 2.2s-4.3-1.1-5.7-2.2c-1.6-1.1-3.2-2.5-6.7-2.5s-5 1.4-6.7 2.5-2.8 2.2-5.7 2.2-4.1-1.1-5.7-2.2-3.2-2.5-6.7-2.5-5 1.4-6.6 2.5c-1.5 1.1-2.9 2.2-5.6 2.2-2.114335.0388406-4.160025-.750724-5.7-2.2-2-1.1-3.5-2.5-6.8-2.5s-5.1 1.4-6.7 2.5-2.9 2.2-5.7 2.2-4.2-1.1-5.8-2.2-3.1-2.5-6.6-2.5-5.1 1.4-6.7 2.5c-1.52582 1.4079059-3.52388 2.1928581-5.6 2.2-2.105232-.0109405-4.133323-.7937127-5.7-2.2-1.6-1.1-3.3-2.5-6.7-2.5h-.6c-3.5 0-5.1 1.4-6.7 2.5-1.52582 1.4079059-3.52388 2.1928581-5.6 2.2-2.110616.0180987-4.148845-.7685863-5.7-2.2-1.6-1.1-3.3-2.5-6.7-2.5s-5 1.4-6.6 2.5-2.9 2.2-5.8 2.2c-2.8 0-4-1.1-5.7-2.2-1.6-1.1-3.2-2.5-6.6-2.5s-5.1 1.4-6.7 2.5c-1.52582 1.4079059-3.52388 2.1928581-5.6 2.2-2.105232-.0109405-4.133323-.7937127-5.7-2.2-1.6-1.1-3.3-2.5-6.7-2.5-3.3 0-5 1.4-6.6 2.5s-2.9 2.2-5.8 2.2c-2.1106158.0180987-4.1488451-.7685863-5.7-2.2-1.6-1.1-3.2-2.5-6.6-2.5s-5.1 1.4-6.7 2.5c-1.4 1.1-2.9 2.2-5.7 2.2s-4.2-1.1-5.6-2.2c-1.6-1.1-3.3-2.5-6.7-2.5-2.430724.0034978-4.7769576.8922227-6.6 2.5-1.6 1.1-2.9 2.2-5.8 2.2-2.1106158.0180987-4.1488451-.7685863-5.7-2.2-1.6-1.1-3.2-2.5-6.6-2.5s-5 1.4-6.6 2.5-3 2.2-5.8 2.2c-2.7 0-4.2-1.1-5.8-2.2-1.5-1.1-3-2.5-6.3-2.5-2.4702219-.0503743-4.86656558.8437838-6.7 2.5-1.6 1.1-2.8 2.2-5.7 2.2l-.2 1.6z"/></g></svg>