<svg height="19" viewBox="0 0 62 19" width="62" xmlns="http://www.w3.org/2000/svg"><g fill="#c2c1c1" transform=""><path d="m6.7 15.8020184c1.4-1.1 2.9-2.3 5.7-2.3 2.9 0 4.2 1.2 5.6 2.3 1.6 1 3.3 2.5 6.7 2.5 2.430724-.0034978 4.7769576-.8922227 6.6-2.5 1.6-1.1 2.9-2.3 5.8-2.3s4.2 1.2 5.7 2.3c1.6 1 3.1 2.5 6.6 2.5 3.4 0 5-1.4 6.6-2.5s2.8-2.3 5.7-2.3c-.2-.0020184.3-1.5020184.1-1.5-2.430724.0034978-4.7769576.8922227-6.6 2.5-1.6 1.1-2.9 2.2-5.8 2.2-2.1106158.0180987-4.1488451-.7685863-5.7-2.2-1.6-1.1-3.2-2.5-6.6-2.5s-5 1.4-6.6 2.5-3 2.2-5.8 2.2c-2.7 0-4.2-1.1-5.8-2.2-1.5-1.1-3-2.5-6.3-2.5-2.4702219-.0503743-4.86656558.8437838-6.7 2.5-1.6 1.1-2.8 2.2-5.7 2.2l-.2 1.6c3.5 0 5.1-1.4 6.7-2.5z"/><path d="m6.7 3.80201841c1.4-1.1 2.9-2.3 5.7-2.3 2.9 0 4.2 1.2 5.6 2.3 1.6 1 3.3 2.5 6.7 2.5 2.430724-.00349782 4.7769576-.89222269 6.6-2.5 1.6-1.1 2.9-2.3 5.8-2.3s4.2 1.2 5.7 2.3c1.6 1 3.1 2.5 6.6 2.5 3.4 0 5-1.4 6.6-2.5s2.8-2.3 5.7-2.3c-.2-.00201841.3-1.50201841.1-1.5-2.430724.00349782-4.7769576.8922227-6.6 2.5-1.6 1.1-2.9 2.2-5.8 2.2-2.1106158.01809867-4.1488451-.76858634-5.7-2.2-1.6-1.1-3.2-2.5-6.6-2.5s-5 1.4-6.6 2.5-3 2.2-5.8 2.2c-2.7 0-4.2-1.1-5.8-2.2-1.5-1.1-3-2.5-6.3-2.5-2.4702219-.05037429-4.86656558.8437838-6.7 2.5-1.6 1.1-2.8 2.2-5.7 2.2l-.2 1.6c3.5 0 5.1-1.4 6.7-2.5z"/><path d="m6.7 9.80201841c1.4-1.1 2.9-2.3 5.7-2.3 2.9 0 4.2 1.2 5.6 2.3 1.6.99999999 3.3 2.49999999 6.7 2.49999999 2.430724-.0034978 4.7769576-.8922227 6.6-2.49999999 1.6-1.1 2.9-2.3 5.8-2.3s4.2 1.2 5.7 2.3c1.6.99999999 3.1 2.49999999 6.6 2.49999999 3.4 0 5-1.4 6.6-2.49999999 1.6-1.1 2.8-2.3 5.7-2.3-.2-.00201841.3-1.50201841.1-1.5-2.430724.00349782-4.7769576.8922227-6.6 2.5-1.6 1.1-2.9 2.19999999-5.8 2.19999999-2.1106158.0180987-4.1488451-.76858633-5.7-2.19999999-1.6-1.1-3.2-2.5-6.6-2.5s-5 1.4-6.6 2.5-3 2.19999999-5.8 2.19999999c-2.7 0-4.2-1.09999999-5.8-2.19999999-1.5-1.1-3-2.5-6.3-2.5-2.4702219-.05037429-4.86656558.8437838-6.7 2.5-1.6 1.1-2.8 2.19999999-5.7 2.19999999l-.2 1.6c3.5 0 5.1-1.4 6.7-2.49999999z"/></g></svg>