<svg height="67" viewBox="0 0 1420 67" width="1420" xmlns="http://www.w3.org/2000/svg"><path d="m1.5 496.242552c40-1.828368 72.6975943-1.828368 98.092783 0 103.587932 7.457983 90.045373 39.708117 141.338261 39.708117 85.799778 0 128.814617 0 174.734643 20.582317 45.920026 20.582318 56.020847-66.925174 118.525978-52.116903 23.04588 5.459866-.52696 58.12257 36.637039 44.17528 33.682439-12.640694-52.591878-52.348811 49.637279-44.17528 102.229157 8.173532 69.835926 50.091341 91.592597 53.870401 68.581857 11.912435 46.51639-42.189874 116.887338-42.189874 18.175649 0 63.065174-11.819781 80.412227-11.680527 49.815809.3999 70.985657 14.967741 130.700615 31.534586 80.50914 22.335815 93.31531-4.891686 198.13199-25.450669 48.45955-9.504965 110.06263-14.338299 184.80925-14.5" fill="none" stroke="#fff" stroke-dasharray="6 6 6" stroke-linecap="round" stroke-linejoin="round" transform="translate(-1 -494)"/></svg>