<svg height="55" viewBox="0 0 93 55" width="93" xmlns="http://www.w3.org/2000/svg"><g fill="none" stroke="#979797" stroke-linecap="round" stroke-width="3"><g transform="translate(18)"><path d="m0 14c3.68702915 7 7.33800398 10.5 10.9529245 10.5 3.6149205 0 7.2658953-3.5 10.9529244-10.5 3.6870292 7 7.338004 10.5 10.9529245 10.5s7.2658953-3.5 10.9529245-10.5c3.6870291 7 7.338004 10.5 10.9529245 10.5s7.2658953-3.5 10.9529244-10.5"/><path d="m61.5619832.22867853 11.8 7.5-11.5 6.99999997" stroke-linejoin="round" transform="matrix(.2419219 -.97029573 .97029573 .2419219 43.884922 71.127497)"/></g><path d="m0 0c3.68702915 7 7.33800398 10.5 10.9529245 10.5 3.6149205 0 7.2658953-3.5 10.9529244-10.5 3.6870292 7 7.338004 10.5 10.9529245 10.5s7.2658953-3.5 10.9529245-10.5c3.6870291 7 7.338004 10.5 10.9529245 10.5s7.2658953-3.5 10.9529244-10.5" transform="translate(2 43)"/></g></svg>