<svg height="492" viewBox="0 0 1050 492" width="1050" xmlns="http://www.w3.org/2000/svg"><path d="m702.034143 8.84513551c0 11.14750709-1.665315 15.89974559-7.448883 21.26045399-5.222086 4.8402811-5.66993 6.5780157-3.37918 13.0898437 1.341526 3.8132774 1.318954 3.9165928-1.450639 6.936177-1.546372 1.6860529-4.107055 5.8167852-5.690479 9.179066-1.583423 3.3622809-4.363911 9.2520915-6.179595 13.0880065-3.957928 8.361505-14.351049 19.7180074-25.101266 27.4287706-6.359227 4.5614077-7.412612 5.7776927-10.315148 11.9105587l-3.232681 6.829634-8.219894-6.107736c-4.521433-3.359677-8.931268-6.113152-9.798794-6.116922-2.417625-.012781-5.538707 5.141105-7.261923 11.989543-1.477575 5.871822-1.739241 6.243658-5.225352 7.454192-2.018508.700858-4.619827 2.170758-5.782182 3.266026-2.768653 2.608575-8.347374 13.584023-13.969215 27.485725-4.827478 11.937621-6.158107 13.467495-13.743661 15.786445-2.871235.87771-4.236574.776903-7.741992-.565767-3.655787-1.400246-4.778288-2.527865-7.968948-8.007114-4.912474-8.43592-8.884261-11.836016-15.417831-13.19637-2.853968-.59422-6.528902-.947492-8.165098-.784363-2.680852.267275-3.083251.728879-4.073271 4.660249-.604139 2.399213-2.260724 5.746125-3.68148 7.439479-2.282356 2.720469-2.512116 3.58813-1.98348 7.443184.466369 3.400767.080919 5.73574-1.740022 10.589809-3.028152 8.068668-4.860482 10.780814-9.093488 13.460881-2.113605 1.338196-3.71619 3.225384-4.111724 4.842118-.356475 1.456849-2.279871 4.341725-4.274868 6.410829-4.326717 4.487568-7.786051 11.253427-9.375703 18.339728-1.9978 8.906551-5.991855 15.954303-14.126593 24.923256-10.963475 12.087922-15.328167 18.28541-18.368457 26.078656-2.221969 5.695513-3.884002 8.065011-9.937965 14.171788-5.307386 5.353775-7.269235 7.9878-7.269235 9.763189 0 3.123028 3.075621 8.10078 6.822474 11.041684 2.745779 2.155182 2.85381 2.462221 1.659389 4.700668-.702979 1.317188-3.320163 4.817724-5.817035 7.779348s-4.540277 6.083916-4.540277 6.938014c0 .879659-2.37981 3.025719-5.489217 4.950482-3.018658 1.868816-6.02314 4.045501-6.677711 4.836575-.65457.791089-1.920751 1.438316-2.813174 1.438316-.892582 0-6.433631 2.261597-12.31169 5.025792-5.878075 2.764211-13.71596 6.204214-17.417973 7.64523l-6.730803 2.621276-2.468837-1.948951c-2.562085-2.021352-11.88253-4.442851-13.985717-3.633437-2.06381.794316-4.350212 6.789327-3.745451 9.821995.699092 3.505344-1.375454 5.147959-9.807826 7.77013-4.605028 1.431989-8.659949 1.853463-17.841063 1.853463h-11.881129l-4.604407-6.113264c-5.081688-6.747168-7.811745-7.782031-10.337242-3.916305-1.505434 2.304603-7.613572 6.549514-14.251126 9.902817-2.157043 1.089725-5.743873 4.104005-7.970828 6.699224-4.558946 5.312765-6.655761 6.186098-16.828154 7.011487l-7.154036.580464-5.093364-5.786271c-4.814878-5.468849-5.400476-5.831659-10.665077-6.633101-5.96492-.908048-6.719111-1.505127-10.886569-8.598569-1.377637-2.344943-4.890684-6.030702-7.806139-8.19082-4.021294-2.979469-5.135225-4.305236-4.611718-5.492365.379508-.860664.874518-3.116062 1.09883-5.011094.340754-2.87839.021823-3.699035-1.932268-4.983568-2.020053-1.327476-2.2724-2.043495-1.844308-5.244373.589803-4.409749-.823785-6.549706-4.318769-6.541255-3.469306.007988-6.149394 2.03498-16.17422 12.228349-4.837432 4.918722-12.36991 11.478701-16.740352 14.577749-4.370299 3.099032-10.096746 7.789156-12.725446 10.4208-3.655182 3.659367-6.781393 5.616497-13.287724 8.321214-9.432204 3.92105-21.495465 12.442809-34.465772 24.348287-7.152645 6.565251-8.024212 7.75671-9.921458 13.556417-2.572206 7.862741-2.962458 8.361824-7.159495 9.151508-1.862219.350381-4.299465 1.237341-5.415895 1.971013-2.693936 1.770325-6.135532 8.033905-6.135532 11.166598 0 3.148509-2.954831 4.498479-14.5826888 6.66248-10.9974147 2.046658-13.5302386 3.346528-18.9033242 9.708088-2.4707134 2.925359-5.3366607 6.038306-6.3682519 6.917805-3.0580368 2.607361-14.0929674 6.348763-28.6670944 9.719111-16.4461535 3.803277-22.3362039 5.928297-29.73137679 10.722072-6.27718744 4.069098-7.72845075 5.678819-5.1887774 5.756876.93305443.028757 33.55590629 1.486659 72.49579669 3.238485 49.5940618 2.231147 72.4850538 3.599106 76.4263368 4.570242 6.997295 1.724171 18.304167 1.862378 45.949488.560271 20.808971-.980131 62.063591-4.288797 65.383929-5.244405 1.016493-.292516 2.856135.777766 4.954352 2.882129l3.336983 3.346848 177.90616-.014378c225.74153-.017414 323.338295-1.217196 421.719914-5.185614 77.432409-3.123395 120.904155-6.71079 148.372677-12.243031 6.30335-1.2695 13.73366-2.307176 16.51314-2.307176 7.87013 0 13.75475-1.037835 13.75475-2.426562 0-.677006-2.28809-5.59346-5.08435-10.924118-6.21539-11.849036-6.89656-14.351452-8.05506-29.601862-.70237-9.246675-1.32305-12.616273-2.65568-14.417911-2.01072-2.718472-5.67777-3.453742-8.77486-1.757944-1.18597.649352-3.27359 1.072487-4.64119.938658-1.3676-.133877-4.26711.237049-6.44333.824782-3.68911.996266-4.126.905364-6.45613-1.333595-4.96094-4.766888-13.810256-3.906672-19.604767 1.904873-2.914802 2.923346-3.165094 3.586485-2.622791 6.987619l.598947 3.758321-3.527527-1.478719c-7.755707-3.250083-8.981906-4.423297-10.313316-9.866057-1.344074-5.494985-4.599741-9.382949-7.855502-9.382949-2.665736 0-4.690233-5.4935-5.296762-14.368339-.412052-6.029838-.852792-7.593708-2.450599-8.716167-2.644454-1.857633-4.960978-1.71949-8.558815.510666l-3.031179 1.877331-3.642948-2.444935c-5.042806-3.383209-8.724223-6.954645-10.315196-10.009344l-1.346129-2.584531 5.413983 2.422888c2.978454 1.333483 9.2005 3.954104 13.8263 5.823016 11.331244 4.578086 14.960605 8.277456 19.61933 19.994804 5.702155 14.341531 8.029734 15.742064 18.628593 11.21435 3.735974-1.595966 8.977032-3.190765 11.644918-3.545236l4.84984-.644751-3.743666-6.113248c-2.059477-3.362281-5.162655-9.170151-6.895715-12.906154-3.219572-6.940602-7.083535-10.583641-11.252953-10.611855-4.043547-.027318-11.418264-4.661927-17.41055-10.940652-5.679743-5.951206-15.4185-17.107468-18.714594-21.440453-1.370054-1.801111-1.348852-1.801111 1.80404 0 1.753306 1.001586 5.129189 4.553931 7.501958 7.895043 9.519351 13.404391 14.767242 17.512694 20.89964 16.359545 4.153648-.78104 16.703588-6.559388 16.703588-7.691145 0-.493987-2.5247-2.533105-5.609974-4.529823-3.085353-1.996734-5.814964-4.158578-6.065989-4.805358-.506113-1.30404.306538-1.00066 12.901302 4.836591 4.025754 1.865764 7.507133 3.392778 7.736413 3.392778.22929 0 .4157-5.092746.4157-11.317234 0-10.139035-.23743-11.789606-2.291193-15.85439-2.918832-5.777006-6.576594-10.136975-9.989241-11.906869-1.473847-.764441-7.225797-2.476598-12.782217-3.806088-5.556341-1.329505-10.973701-2.975571-12.038699-3.657306-1.31752-.843361-2.238487-2.913696-2.882816-6.47879l-.946932-5.238893 4.514696 4.235949c4.976604 4.668701 11.167971 7.726004 17.368449 8.578377l4.044025.55658v-6.737789c0-5.624916.468122-7.666814 2.827861-12.355102 3.194722-6.347213 5.970622-17.105438 5.309712-20.573415-.242217-1.270682-.01115-3.002953.516418-3.848328 1.359828-2.183763-1.328702-10.895729-4.880966-15.814003-3.378798-4.677856-8.138227-8.270619-18.375784-13.874192-4.489846-2.457571-11.930286-7.97898-18.28604-13.569293-9.977995-8.776268-19.716943-15.057182-23.346591-15.057182-.850625 0-2.341915.583164-3.315113 1.296867-2.28078 1.672633-5.139591.703206-13.923276-4.728211-3.639763-2.250622-7.14749-4.092646-7.795004-4.092646-.64761 0-2.246563-1.158229-3.555084-2.573508-1.308361-1.415264-4.596474-3.875519-7.305983-5.466644-6.351596-3.729868-7.622588-6.420271-7.635666-16.177709-.015929-9.122783.474924-8.884999-12.000214-5.885465-4.287627 1.030918-9.814053 1.877219-12.280405 1.88099-2.466512.003195-6.000267.642195-7.851743 1.418091-5.721621 2.397614-5.826688 2.259136-4.426943-5.81383 1.62871-9.393605 3.585891-15.161313 6.300529-18.561983 2.117984-2.653339 2.265551-2.692576 4.424935-1.175643 4.870915 3.421727 9.639854.265901 9.183296-6.076503-.320985-4.458636.884952-5.49441 5.652186-4.853126 2.541234.341866 3.779699.018532 4.893806-1.280332 2.101163-2.449344 6.174912-13.205364 6.899522-18.218503.868609-6.010652-.829837-16.32892-3.247319-19.733952-2.522247-3.5526001-11.423473-9.6670943-16.406927-11.269466-11.921748-3.8331673-13.597336-4.746631-13.597336-7.4192849 0-1.675461-1.060378-3.5818521-3.047602-5.4776671-4.61328-4.4007552-13.437616-9.687895-16.168915-9.687895-2.757455 0-8.211484-2.701618-11.829758-5.8597442-4.898616-4.275457-5.389421-14.8513663-.745478-16.0693286 2.283455-.5989004 4.048995-4.606092 3.316754-7.5313391-.319743-1.278175-2.020531-3.1737345-3.778456-4.2138703-1.757607-1.0401677-3.764917-3.0947023-4.461508-4.5647466-1.800424-3.7986276-9.085079-6.061742-20.916222-6.4989834-10.970643-.4054656-11.657438-.0314724-14.620983 7.9519816-1.077979 2.9039833-3.195502 7.221185-4.707165 9.5941969-1.511663 2.373028-2.749028 4.8065722-2.749028 5.407885 0 1.6989773-1.786885 1.3135294-9.377424-2.0169276-8.636756-3.7893936-17.281445-9.5984465-33.758889-22.6877311-11.485261-9.1235822-26.452923-19.3463626-28.326493-19.3463626-.408467-.00030354-.743613 3.53052186-.743613 7.84513551z" fill="none" stroke="#000"/></svg>