<svg height="955" viewBox="0 0 45 955" width="45" xmlns="http://www.w3.org/2000/svg"><path d="m-455.096492 475.317936c68.692983.414428 69.530702-5.998344 91.730263-.414428 63.255909 15.910932 70.55382-15.582317 93.824562 5 23.270741 20.582318 36.230303-36.392188 67.905824-21.583916 11.678885 5.459866 9.179557 40.733058 28.013035 26.785767 17.06914-12.640694 44.263917-3.621698 55.289474.157362 34.7550034 11.912435 36.3822036-9.944785 72.0438594-9.944785 9.2108142 0 25.9846148-17.137599 34.7755244-16.998344 25.2449949.399899 35.9731697 14.96774 66.2347259 31.534585 40.7993521 22.335815 46.2392663 0 124.5135783-19.854059 50.154637-12.721581 34.12191 4.90339 62.65161 4.90339 28.529701 0 40.648873 5 76.232456 5s41.739954-20.306779 53.517619-9.90339c11.777665 10.40339 16.879889 14.768486 26.903434 5.317818 10.023545-9.450669 55.708333 2.182064 101.364035 0" fill="none" stroke="#fff" stroke-dasharray="6" stroke-linecap="round" stroke-linejoin="round" transform="matrix(0 1 -1 0 499.903508 455.096492)"/></svg>